<?xml version="1.0" encoding="utf-8"?>
<!-- Generator: Adobe Illustrator 23.1.0, SVG Export Plug-In . SVG Version: 6.00 Build 0)  -->
<svg version="1.1" id="Layer_1" xmlns="http://www.w3.org/2000/svg" xmlns:xlink="http://www.w3.org/1999/xlink" x="0px" y="0px"
	 viewBox="0 0 800 800" enable-background="new 0 0 800 800" xml:space="preserve">
<path fill="none" stroke="#FFFFFF" stroke-width="3.6545" stroke-miterlimit="10" d="M150.8,327.9c0,0,13.8-9.4,29.2-21.1
	c0,0,78.7-61.1,150.4,10.6c0,0,45.9,44.4,28.8,109.9c0,0-17.6,83.5-99.5,95.9c0,0-48.9,6-101.7-3.4c0,0-25.6-2.6-35.8-33.7
	c0,0-6.3-17.5-22.2-36.3c0,0-78.6,3.6-73.1-84.1c0,0,2.6-45.9,50.1-58.7C77.2,307,117.4,296,150.8,327.9z"/>
<path fill="none" stroke="#FFFFFF" stroke-width="1.8246" stroke-miterlimit="10" d="M145,330.9c0,0-58.3-38.8-99.5,34.9
	c0,0-27.4,68.9,49.7,79.9"/>
<path fill="none" stroke="#FFFFFF" stroke-width="1.8246" stroke-miterlimit="10" d="M150.8,327.9c-21.4,15.3-35.9,8.5-35.9,8.5
	c-13.7-11-32.1-7-32.1-7C72.2,328.1,54.4,352,54.4,352C46,365.6,56.5,388,56.5,388s3.4,25.2,43.6,61.7"/>
<path fill="none" stroke="#FFFFFF" stroke-width="1.8246" stroke-miterlimit="10" d="M56.5,388c0,0-8.6-61.5,58.3-51.7"/>
<path fill="none" stroke="#FFFFFF" stroke-width="1.8246" stroke-miterlimit="10" d="M140.7,410.4c0,0-7-57.6,32.9-93.2
	c0,0,64.6-60.3,135.1-8.6c0,0,68.1,50.9,32.9,132.3c0,0-20,47-88.9,62.6l-58.2,12.1c0,0-47.9,13.7-63.6-20c0,0-7.5-16.4,3.1-34.1
	C134.1,461.7,144.6,434.2,140.7,410.4z"/>
<path fill="none" stroke="#FFFFFF" stroke-width="1.8246" stroke-miterlimit="10" d="M153.7,412.3c0,0-13.3-101.8,86.4-113.9
	c0,0,109.4-8.6,98.8,117.5c0,0-7.4,49.3-64.6,68.9l-90.8,23.5c0,0-33.6,10.4-43.9-12.1c0,0-11.7-12.5,7.8-35.6
	C147.4,460.5,158.4,439.7,153.7,412.3z"/>
<ellipse transform="matrix(0.7071 -0.7071 0.7071 0.7071 -205.9106 291.0484)" fill="none" stroke="#FFFFFF" stroke-width="1.8246" stroke-miterlimit="10" cx="248.4" cy="394.1" rx="77" ry="77"/>
<path fill="none" stroke="#FFFFFF" stroke-miterlimit="10" d="M183.3,466.7c-0.7,1.2-2.4,1.5-3.8,0.7c-1.4-0.8-2-2.4-1.3-3.7
	c0.7-1.2,2.4-1.5,3.8-0.7C183.5,463.9,184,465.5,183.3,466.7"/>
<path fill="none" stroke="#FFFFFF" stroke-miterlimit="10" d="M168.1,467.4c-0.7,1-2.4,1-3.7,0c-1.3-1-1.7-2.5-1-3.5
	c0.7-1,2.4-1,3.7-0.1C168.4,464.8,168.9,466.4,168.1,467.4"/>
<path fill="none" stroke="#FFFFFF" stroke-miterlimit="10" d="M180.7,494c-0.9,0.9-2.5,0.6-3.6-0.5c-1.1-1.1-1.4-2.8-0.5-3.6
	c0.8-0.8,2.5-0.6,3.6,0.5C181.3,491.6,181.6,493.2,180.7,494"/>
<path fill="none" stroke="#FFFFFF" stroke-miterlimit="10" d="M170.4,486.3c-0.9,0.9-2.5,0.6-3.6-0.5c-1.1-1.1-1.4-2.8-0.5-3.6
	c0.8-0.8,2.5-0.6,3.6,0.5C171.1,483.9,171.3,485.5,170.4,486.3"/>
<path fill="none" stroke="#FFFFFF" stroke-miterlimit="10" d="M161.2,477.8c-0.9,0.9-2.5,0.6-3.6-0.5c-1.1-1.1-1.4-2.8-0.5-3.6
	c0.8-0.9,2.5-0.6,3.6,0.5C161.8,475.3,162.1,476.9,161.2,477.8"/>
<path fill="none" stroke="#FFFFFF" stroke-miterlimit="10" d="M155.4,488c-0.9,0.9-2.5,0.6-3.6-0.5c-1.1-1.1-1.4-2.8-0.5-3.6
	c0.8-0.8,2.5-0.6,3.6,0.5C156,485.6,156.3,487.2,155.4,488"/>
<path fill="none" stroke="#FFFFFF" stroke-miterlimit="10" d="M165.5,496.6c-0.9,0.9-2.5,0.6-3.6-0.5c-1.1-1.1-1.4-2.8-0.5-3.6
	c0.8-0.8,2.5-0.6,3.6,0.5C166.1,494.1,166.4,495.8,165.5,496.6"/>
<path fill="none" stroke="#FFFFFF" stroke-miterlimit="10" d="M177.3,476.2c-0.7,1-2.4,1-3.6,0c-1.3-1-1.8-2.5-1-3.5
	c0.7-1,2.3-1,3.6,0C177.5,473.7,178,475.2,177.3,476.2"/>
<path fill="none" stroke="#FFFFFF" stroke-miterlimit="10" d="M187.2,484.4c-0.7,1-2.3,0.9-3.6,0c-1.3-1-1.8-2.5-1.1-3.5
	c0.7-1,2.3-0.9,3.6,0C187.4,481.9,187.9,483.5,187.2,484.4"/>
<path fill="none" stroke="#FFFFFF" stroke-miterlimit="10" d="M197.7,491c-0.7,1-2.4,1-3.7,0.1c-1.3-1-1.7-2.6-1-3.5
	c0.7-1,2.4-1,3.7-0.1C198,488.4,198.5,490,197.7,491"/>
<path fill="none" stroke="#FFFFFF" stroke-miterlimit="10" d="M193.5,474.6c-0.7,1.2-2.4,1.5-3.8,0.7c-1.4-0.8-2-2.4-1.3-3.7
	c0.7-1.2,2.4-1.5,3.8-0.7C193.6,471.7,194.2,473.4,193.5,474.6"/>
<path fill="none" stroke="#FFFFFF" stroke-miterlimit="10" d="M204.7,481.8c-0.7,1.2-2.4,1.5-3.8,0.7c-1.4-0.8-2-2.4-1.3-3.6
	c0.7-1.2,2.4-1.5,3.8-0.7C204.8,478.9,205.4,480.6,204.7,481.8"/>
<path fill="none" stroke="#FFFFFF" stroke-width="1.8246" stroke-linecap="round" stroke-linejoin="round" stroke-miterlimit="10" d="
	M341.6,448.3c0,0-5.1,12.5-17.6,23.9"/>
<path fill="#FFFFFF" d="M264.7,383.7c-0.4-1.1-1.1-3.3,7.8-6.1c0.3-0.1,0.6,0.1,0.7,0.4l0.4,1.3c0.1,0.3-0.1,0.7-0.3,0.8
	c-4.3,1.4-3.9,2.5-3.7,3l3.3,10.4c0.1,0.3,0,0.7-0.4,0.8l-3.5,1.1c-0.3,0.1-0.6-0.1-0.7-0.4L264.7,383.7"/>
<path fill-rule="evenodd" clip-rule="evenodd" fill="#FFFFFF" d="M238.9,391.9l2.8,8.8c0.4,1.1,1.1,3.3-7.8,6.1
	c-8.9,2.8-9.5,0.7-9.9-0.5l-0.8-2.5c-0.4-1.1-1.1-3.3,7.8-6.1c1.7-0.6,3.2-0.9,4.3-1.1l-0.8-2.4c-0.2-0.5-0.5-1.6-4.8-0.2
	c-3.9,1.3-3.6,2.4-3.4,2.9c0.1,0.3-0.1,0.7-0.4,0.8l-3.5,1.1c-0.3,0.1-0.6-0.1-0.7-0.4l-0.3-0.8c-0.4-1.1-1.1-3.3,7.5-6
	C237.9,388.6,238.6,390.8,238.9,391.9 M228.4,404.1c0.2,0.5,0.5,1.6,4.8,0.2c4.3-1.4,3.9-2.5,3.7-3l-0.3-0.9
	c-0.2-0.5-0.5-1.6-4.8-0.2c-4.3,1.4-3.9,2.5-3.7,3L228.4,404.1z"/>
<path fill-rule="evenodd" clip-rule="evenodd" fill="#FFFFFF" d="M240.1,381.6c-0.1-0.3,0-0.7,0.4-0.8l3.5-1.1
	c0.3-0.1,0.6,0.1,0.7,0.4l1.9,5.9c1.1-0.5,2.4-1,4.2-1.6c8.8-2.8,9.6-0.7,9.9,0.5l2.8,8.8c0.4,1.1,1.1,3.3-7.8,6.1
	c-8.9,2.8-9.5,0.6-9.9-0.5L240.1,381.6 M250.1,397.1c0.2,0.5,0.5,1.6,4.8,0.2c4.3-1.4,3.9-2.5,3.7-3l-2.3-7.2
	c-0.2-0.5-0.5-1.6-4.8-0.2c-4.2,1.4-3.9,2.5-3.7,3L250.1,397.1z"/>
<path fill-rule="evenodd" clip-rule="evenodd" fill="#FFFFFF" d="M293.3,374.5l2.8,8.8c0.4,1.1,1.1,3.3-7.8,6.1
	c-8.9,2.8-9.5,0.6-9.9-0.5l-0.8-2.5c-0.4-1.1-1.1-3.3,7.8-6.1c1.7-0.6,3.2-0.9,4.3-1.1l-0.8-2.4c-0.2-0.5-0.5-1.6-4.8-0.2
	c-3.9,1.3-3.6,2.4-3.4,2.9c0.1,0.3-0.1,0.7-0.4,0.8l-3.5,1.1c-0.3,0.1-0.6-0.1-0.7-0.4l-0.3-0.8c-0.4-1.1-1.1-3.3,7.5-6
	C292.2,371.2,292.9,373.4,293.3,374.5 M282.7,386.7c0.2,0.5,0.5,1.6,4.8,0.2c4.3-1.4,3.9-2.5,3.7-3l-0.3-0.9
	c-0.1-0.5-0.5-1.6-4.8-0.2c-4.3,1.4-3.9,2.5-3.7,3L282.7,386.7z"/>
<path fill="#FFFFFF" d="M220.2,407.7c0.4,1.1,1.1,3.3-7.8,6.1c-8.9,2.8-9.6,0.6-9.9-0.5l-0.5-1.5c-0.1-0.3,0.1-0.7,0.4-0.8l3.5-1.1
	c0.3-0.1,0.6,0.1,0.7,0.4l0.2,0.7c0.2,0.5,0.7,1.5,4.7,0.2c4.3-1.4,3.9-2.5,3.7-3l-5.4-17c-0.1-0.3,0.1-0.7,0.4-0.8l3.5-1.1
	c0.3-0.1,0.6,0.1,0.7,0.4L220.2,407.7"/>
<path fill="none" stroke="#FFFFFF" stroke-width="3.6545" stroke-miterlimit="10" d="M650,327.9c0,0-13.8-9.4-29.2-21.1
	c0,0-78.7-61.1-150.4,10.6c0,0-45.9,44.4-28.8,109.9c0,0,17.6,83.5,99.5,95.9c0,0,48.9,6,101.7-3.4c0,0,25.6-2.6,35.8-33.7
	c0,0,6.3-17.5,22.2-36.3c0,0,78.6,3.6,73.1-84.1c0,0-2.6-45.9-50.1-58.7C723.6,307,683.4,296,650,327.9z"/>
<path fill="none" stroke="#FFFFFF" stroke-width="1.8246" stroke-miterlimit="10" d="M655.8,330.9c0,0,52.4-34.8,92.9,24.2
	c5.6,8.2,9.3,17.6,10.6,27.4c2.8,21.1-1.2,55.6-53.8,63.1"/>
<path fill="none" stroke="#FFFFFF" stroke-width="1.8246" stroke-miterlimit="10" d="M650,327.9c21.4,15.3,35.9,8.5,35.9,8.5
	c13.7-11,32.1-7,32.1-7c10.6-1.2,28.4,22.7,28.4,22.7c8.4,13.6-2.2,36.1-2.2,36.1s-3.4,25.2-43.6,61.7"/>
<path fill="none" stroke="#FFFFFF" stroke-width="1.8246" stroke-miterlimit="10" d="M744.3,388c0,0,8.6-61.5-58.3-51.7"/>
<path fill="none" stroke="#FFFFFF" stroke-width="1.8246" stroke-miterlimit="10" d="M660.1,410.4c0,0,7-57.6-32.9-93.2
	c0,0-64.6-60.3-135.1-8.6c0,0-68.1,50.9-32.9,132.3c0,0,20,47,88.9,62.6l58.2,12.1c0,0,47.9,13.7,63.6-20c0,0,7.5-16.4-3.1-34.1
	C666.7,461.7,656.2,434.2,660.1,410.4z"/>
<path fill="none" stroke="#FFFFFF" stroke-width="1.8246" stroke-miterlimit="10" d="M647.2,412.3c0,0,13.3-101.8-86.4-113.9
	c0,0-109.4-8.6-98.8,117.5c0,0,7.4,49.3,64.6,68.9l90.8,23.5c0,0,33.6,10.4,43.9-12.1c0,0,11.7-12.5-7.8-35.6
	C653.4,460.5,642.5,439.7,647.2,412.3z"/>
<ellipse transform="matrix(0.9871 -0.1602 0.1602 0.9871 -55.9913 93.5793)" fill="none" stroke="#FFFFFF" stroke-width="1.8246" stroke-miterlimit="10" cx="552.4" cy="394.1" rx="77" ry="77"/>
<path fill="none" stroke="#FFFFFF" stroke-miterlimit="10" d="M617.5,466.7c0.7,1.2,2.4,1.5,3.8,0.7c1.4-0.8,2-2.4,1.3-3.7
	c-0.7-1.2-2.4-1.5-3.8-0.7C617.4,463.9,616.8,465.5,617.5,466.7"/>
<path fill="none" stroke="#FFFFFF" stroke-miterlimit="10" d="M632.7,467.4c0.7,1,2.4,1,3.7,0c1.3-1,1.8-2.5,1-3.5
	c-0.7-1-2.4-1-3.7-0.1C632.4,464.8,631.9,466.4,632.7,467.4"/>
<path fill="none" stroke="#FFFFFF" stroke-miterlimit="10" d="M620.1,494c0.8,0.9,2.5,0.6,3.6-0.5c1.1-1.1,1.4-2.8,0.5-3.6
	c-0.8-0.8-2.5-0.6-3.6,0.5C619.5,491.6,619.3,493.2,620.1,494"/>
<path fill="none" stroke="#FFFFFF" stroke-miterlimit="10" d="M630.4,486.3c0.9,0.9,2.5,0.6,3.6-0.5c1.1-1.1,1.4-2.8,0.5-3.6
	c-0.8-0.8-2.5-0.6-3.6,0.5C629.8,483.9,629.5,485.5,630.4,486.3"/>
<path fill="none" stroke="#FFFFFF" stroke-miterlimit="10" d="M639.6,477.8c0.8,0.9,2.5,0.6,3.6-0.5c1.1-1.1,1.4-2.8,0.5-3.6
	c-0.8-0.9-2.5-0.6-3.6,0.5C639,475.3,638.7,476.9,639.6,477.8"/>
<path fill="none" stroke="#FFFFFF" stroke-miterlimit="10" d="M645.4,488c0.8,0.9,2.5,0.6,3.6-0.5c1.1-1.1,1.4-2.8,0.5-3.6
	c-0.8-0.8-2.5-0.6-3.6,0.5C644.8,485.6,644.5,487.2,645.4,488"/>
<path fill="none" stroke="#FFFFFF" stroke-miterlimit="10" d="M635.3,496.6c0.8,0.9,2.5,0.6,3.6-0.5c1.1-1.1,1.4-2.8,0.5-3.6
	c-0.8-0.8-2.5-0.6-3.6,0.5C634.7,494.1,634.4,495.8,635.3,496.6"/>
<path fill="none" stroke="#FFFFFF" stroke-miterlimit="10" d="M623.5,476.2c0.7,1,2.4,1,3.6,0c1.3-1,1.8-2.5,1-3.5
	c-0.7-1-2.3-1-3.6,0C623.3,473.7,622.8,475.2,623.5,476.2"/>
<path fill="none" stroke="#FFFFFF" stroke-miterlimit="10" d="M613.6,484.4c0.7,1,2.3,0.9,3.6,0c1.3-1,1.8-2.5,1.1-3.5
	c-0.7-1-2.3-0.9-3.6,0C613.4,481.9,612.9,483.5,613.6,484.4"/>
<path fill="none" stroke="#FFFFFF" stroke-miterlimit="10" d="M603.1,491c0.7,1,2.4,1,3.7,0.1c1.3-1,1.7-2.6,1-3.5
	c-0.7-1-2.4-1-3.7-0.1C602.8,488.4,602.3,490,603.1,491"/>
<path fill="none" stroke="#FFFFFF" stroke-miterlimit="10" d="M607.3,474.6c0.7,1.2,2.4,1.5,3.8,0.7c1.4-0.8,2-2.4,1.3-3.7
	c-0.7-1.2-2.4-1.5-3.8-0.7C607.2,471.7,606.6,473.4,607.3,474.6"/>
<path fill="none" stroke="#FFFFFF" stroke-miterlimit="10" d="M596.1,481.8c0.7,1.2,2.4,1.5,3.8,0.7c1.4-0.8,2-2.4,1.3-3.6
	c-0.7-1.2-2.4-1.5-3.8-0.7C596,478.9,595.4,480.6,596.1,481.8"/>
<path fill="none" stroke="#FFFFFF" stroke-width="1.8246" stroke-linecap="round" stroke-linejoin="round" stroke-miterlimit="10" d="
	M459.2,448.3c0,0,5.1,12.5,17.6,23.9"/>
<path fill="#FFFFFF" d="M572,396.9c0.4-1.1,1.2-3.3,9.9-0.1c0.3,0.1,0.4,0.5,0.3,0.8l-0.5,1.3c-0.1,0.3-0.5,0.5-0.8,0.4
	c-4.2-1.5-4.6-0.4-4.8,0l-3.7,10.2c-0.1,0.3-0.5,0.5-0.8,0.4l-3.5-1.3c-0.3-0.1-0.4-0.5-0.3-0.8L572,396.9"/>
<path fill-rule="evenodd" clip-rule="evenodd" fill="#FFFFFF" d="M546.6,387.6l-3.2,8.7c-0.4,1.1-1.2,3.3-9.9,0.1
	c-8.7-3.2-7.9-5.3-7.5-6.5l0.9-2.5c0.4-1.1,1.2-3.3,9.9-0.1c1.7,0.6,3.1,1.2,4.1,1.8l0.9-2.3c0.2-0.5,0.6-1.6-3.6-3.1
	c-3.9-1.4-4.3-0.3-4.5,0.2c-0.1,0.3-0.5,0.5-0.8,0.4l-3.5-1.3c-0.3-0.1-0.4-0.5-0.3-0.8l0.3-0.8c0.4-1.1,1.2-3.3,9.6-0.2
	C547.8,384.3,547,386.5,546.6,387.6 M530.8,390.7c-0.2,0.5-0.6,1.6,3.6,3.1c4.2,1.5,4.6,0.4,4.8,0l0.3-0.9c0.2-0.5,0.6-1.6-3.6-3.1
	c-4.2-1.5-4.6-0.4-4.8,0L530.8,390.7z"/>
<path fill-rule="evenodd" clip-rule="evenodd" fill="#FFFFFF" d="M553.8,380.1c0.1-0.3,0.5-0.5,0.7-0.4l3.5,1.3
	c0.3,0.1,0.4,0.5,0.3,0.8l-2.1,5.8c1.2,0.3,2.6,0.7,4.3,1.3c8.7,3.2,7.9,5.3,7.5,6.5l-3.2,8.7c-0.4,1.1-1.2,3.3-9.9,0.1
	c-8.7-3.2-7.9-5.3-7.5-6.4L553.8,380.1 M552.2,398.5c-0.2,0.5-0.6,1.6,3.6,3.1c4.2,1.5,4.6,0.4,4.8,0l2.6-7.1
	c0.2-0.5,0.6-1.6-3.6-3.1c-4.2-1.5-4.6-0.4-4.8,0L552.2,398.5z"/>
<path fill-rule="evenodd" clip-rule="evenodd" fill="#FFFFFF" d="M600.2,407.2l-3.2,8.7c-0.4,1.1-1.2,3.3-9.9,0.1
	c-8.7-3.2-7.9-5.3-7.5-6.5l0.9-2.5c0.4-1.1,1.2-3.3,9.9-0.1c1.7,0.6,3.1,1.2,4.1,1.8l0.9-2.3c0.2-0.5,0.6-1.6-3.6-3.1
	c-3.9-1.4-4.3-0.3-4.5,0.2c-0.1,0.3-0.5,0.5-0.7,0.4l-3.5-1.3c-0.3-0.1-0.4-0.5-0.3-0.8l0.3-0.8c0.4-1.1,1.2-3.3,9.6-0.2
	C601.4,403.9,600.6,406.1,600.2,407.2 M584.4,410.3c-0.2,0.5-0.6,1.6,3.6,3.1c4.2,1.5,4.6,0.4,4.8,0l0.3-0.9
	c0.2-0.5,0.6-1.6-3.6-3.1c-4.2-1.5-4.6-0.4-4.8,0L584.4,410.3z"/>
<path fill="#FFFFFF" d="M522.2,388.4c-0.4,1.1-1.2,3.3-9.9,0.1c-8.7-3.2-7.9-5.3-7.5-6.5l0.5-1.5c0.1-0.3,0.5-0.5,0.8-0.4l3.5,1.3
	c0.3,0.1,0.4,0.5,0.3,0.8l-0.3,0.7c-0.2,0.5-0.4,1.6,3.6,3c4.2,1.5,4.6,0.4,4.8,0l6.1-16.7c0.1-0.3,0.5-0.5,0.8-0.4l3.5,1.3
	c0.3,0.1,0.4,0.5,0.3,0.8L522.2,388.4"/>
</svg>
